# xmcd
#
# Track frame offsets:
#	150
#	18783
#	37230
#	59194
#	79739
#	95461
#	120048
#	136152
#	157269
#	173446
#	186186
#
# Disc length: 2690 seconds
#
# Revision: 0
# Processed by: cddbd v1.5.1PL0 Copyright (c) Steve Scherf et al.
# Submitted via: dBpowerAMP V4.0
#
DISCID=890a800b
DTITLE=Kenny Chesney - When the sun goes down
DYEAR=1900
DGENRE=
TTITLE0=01. There Goes My Life 
TTITLE1=02. I Go Back 
TTITLE2=03. When The Sun Goes Down 
TTITLE3=04. Woman With You, The 
TTITLE4=05. Some People Change 
TTITLE5=06. Anything But Mine 
TTITLE6=07. Keg In The Closet 
TTITLE7=08. When I Think About Leaving 
TTITLE8=09. Being Drunk's A Lot Like Loving You 
TTITLE9=10. Outta Here 
TTITLE10=11. Old Blue Chair 
EXTD=Kenny Chesney When the sun goes down
EXTT0=
EXTT1=
EXTT2=
EXTT3=
EXTT4=
EXTT5=
EXTT6=
EXTT7=
EXTT8=
EXTT9=
EXTT10=
PLAYORDER=
